<svg xmlns="http://www.w3.org/2000/svg" viewBox="0 0 1280 720" role="img" aria-label="Ů ¬É ‘ lí">
  <defs>
    <linearGradient id="sky" x1="0" y1="0" x2="0" y2="1">
      <stop offset="0%" stop-color="#c8dce8"/>
      <stop offset="100%" stop-color="#e8dcc0"/>
    </linearGradient>
    <filter id="grain">
      <feTurbulence type="fractalNoise" baseFrequency="0.9" numOctaves="2" stitchTiles="stitch"/>
      <feColorMatrix type="saturate" values="0"/>
      <feComponentTransfer><feFuncA type="table" tableValues="0 0.08"/></feComponentTransfer>
    </filter>
  </defs>
  <rect width="1280" height="720" fill="url(#sky)"/>
  <rect y="180" width="1280" height="540" fill="#c4a878"/>
  <ellipse cx="420" cy="520" rx="280" ry="120" fill="#d8bc88" opacity="0.85"/>
  <ellipse cx="920" cy="480" rx="340" ry="150" fill="#b89860" opacity="0.75"/>
  <path d="M0 420 Q320 380 640 430 T1280 410 L1280 720 L0 720 Z" fill="#a08858"/>
  <path d="M180 720 Q420 560 680 620 T1180 580 L1280 620 L1280 720 Z" fill="#907848" opacity="0.7"/>
  <path d="M520 720 C580 620 620 580 700 560 C780 540 860 590 940 560" stroke="#786840" stroke-width="18" fill="none" opacity="0.45"/>
  <ellipse cx="300" cy="610" rx="90" ry="40" fill="#e8d0a0" opacity="0.55"/>
  <rect width="1280" height="720" filter="url(#grain)" opacity="0.35"/>
</svg>
